<svg viewBox="0 0 25 24" xmlns="http://www.w3.org/2000/svg" fill-rule="evenodd" clip-rule="evenodd" stroke-linejoin="round" stroke-miterlimit="2">
  <g fill="#fff" fill-rule="nonzero">
    <path d="M18.715 12.315c-.026-2.879 2.357-4.28 2.466-4.344-1.35-1.968-3.442-2.237-4.177-2.258-1.757-.185-3.46 1.051-4.356 1.051-.913 0-2.29-1.033-3.776-1.003-1.911.03-3.7 1.136-4.68 2.855-2.024 3.503-.515 8.653 1.424 11.485.97 1.387 2.104 2.936 3.587 2.881 1.452-.06 1.994-.925 3.745-.925 1.736 0 2.245.925 3.758.89 1.558-.025 2.538-1.393 3.474-2.792 1.121-1.59 1.572-3.156 1.59-3.236-.037-.013-3.026-1.154-3.055-4.604zM15.857 3.85c.78-.977 1.314-2.305 1.166-3.653-1.13.05-2.543.782-3.356 1.737-.72.841-1.363 2.22-1.197 3.517 1.269.095 2.572-.64 3.387-1.601z"/>
  </g>
</svg>