<svg xmlns="http://www.w3.org/2000/svg" viewBox="0 0 144.5 152.48"><path d="m98.22 55.64a17.71 17.71 0 0 1 -13.22-3.72c-.28-.22-.56-.46-.84-.7a17.91 17.91 0 0 1 -24.36 0c-.28.24-.56.48-.84.7a17.82 17.82 0 0 1 -23-.78 18.25 18.25 0 0 1 -9.96 4.42v32.28l16.92 6.16h67.08v-41.36a17.36 17.36 0 0 1 -2-1.48 17.73 17.73 0 0 1 -9.78 4.48zm-33.58 29.36a3 3 0 1 1 3-3 3 3 0 0 1 -3 3zm14 0a3 3 0 1 1 3-3 3 3 0 0 1 -3 3zm6-19h-20.82l.59 2h.23 18a2 2 0 0 1 0 4h-17.08l.58 2h14.5a2 2 0 0 1 0 4h-16a2 2 0 0 1 -1.92-1.44l-4.22-14.56h-6.5a2 2 0 0 1 0-4h8a2 2 0 0 1 1.92 1.44l.74 2.56h22a2 2 0 0 1 0 4z" fill="#ef4b26"/><g fill="#2a94c9"><path d="m42.24 38.42a2 2 0 0 1 .2 1.46 9.87 9.87 0 0 0 8.56 7.81 9.63 9.63 0 0 0 4.24-.43 11.83 11.83 0 0 0 4.55-8l.21-2.16.19-1.17-.19 2.07a12 12 0 0 0 .88 4.48 9.74 9.74 0 0 0 1.12-3.48l.07-.52c0-.18 0-.35 0-.52v-.18l1.41-15.78h-15.74l-5.49 14.9a9.68 9.68 0 0 0 -.01 1.52z"/><path d="m31.19 47.31a11.94 11.94 0 0 0 4.47-6.75l.45-1.15a12.36 12.36 0 0 0 1 3.28 9.69 9.69 0 0 0 1-2.6c0-.09 0-.18.09-.27l.13-.34a12.79 12.79 0 0 1 0-3.28v-.23l5.15-14h-15.54l-9.35 13.72a10 10 0 0 0 7.41 11.75 9.93 9.93 0 0 0 5.19-.13z"/><path d="m66.19 37.39-.19 1.28a10 10 0 0 0 13.42 8.7 12 12 0 0 0 4.58-9.37v-.36l.26 1.64a12.2 12.2 0 0 0 .77 3 9.86 9.86 0 0 0 .97-4.28v-.8l-1-10.15-.44-4.54a5 5 0 0 1 -7.56-.51h-6a4.94 4.94 0 0 1 -3.69 2l-.38 4-.76 8.24h.21z"/><path d="m131.66 34.88-8.79-12.88h-14.14l5.15 14v.23a12.46 12.46 0 0 1 .07 2.19 1.43 1.43 0 0 1 .15.27l.46 1.16a2.76 2.76 0 0 1 .08.27 10 10 0 0 0 12.09 7.35l.44-.14a12 12 0 0 0 4.49-12.45z"/><path d="m110 36.9-5.53-14.9h-5.47a5 5 0 0 1 -8 0h-2.47l.16 1.66.19 1.93 1.12 11.51v.38l.24 1.52a9.93 9.93 0 0 0 11 8.72 9.59 9.59 0 0 0 2.22-.53 12.06 12.06 0 0 0 4.41-7.75l.45 1.15a11.25 11.25 0 0 0 .59 1.75 9.92 9.92 0 0 0 1-3.17 8.35 8.35 0 0 0 .09-2.27z"/></g><g fill="#2b3036"><circle cx="119.7" cy="64" r="4"/><circle cx="142" cy="68" r="2.5"/><path d="m132 84.74v-32a2 2 0 1 0 -4 0v32a7.5 7.5 0 0 1 -7.5 7.5h-55.15c-6.63-3.07-14.89-2.69-21.87-.33-3.94-3-11-7-19.28-5.91a17.89 17.89 0 0 0 -7.28 2.32 7.33 7.33 0 0 1 -.92-3.58v-32a2 2 0 0 0 -4 0v32a11.39 11.39 0 0 0 2 6.41 11.59 11.59 0 0 0 -2 5.85 2 2 0 0 0 1.75 2.11c10.32 1.31 17.5 5 23.28 12 .66.81 1.19 1.47 1.66 2.11a72 72 0 0 1 4.46 6.65 29.84 29.84 0 0 0 3.9 5.46 10.6 10.6 0 0 0 2.5 2c.31.19.66.4 1.09.69h-.39a2 2 0 0 0 -2 2v20.48a2 2 0 0 0 4 0v-18.5h56v5.09a2 2 0 0 0 4 0v-7.09a2 2 0 0 0 -2-2h-2.45a33.11 33.11 0 0 1 2.43-7.45c.64-1.52 1.29-3.1 1.91-4.87a43.62 43.62 0 0 0 2.25-9.6c.19-1.71.32-6.62.32-9.84h5.79a11.51 11.51 0 0 0 11.5-11.5zm-21.59 20.88a39 39 0 0 1 -2 8.74c-.58 1.66-1.21 3.18-1.82 4.66a34 34 0 0 0 -2.78 9h-46.4c-.52-.41-1-.82-1.61-1.24a48.33 48.33 0 0 0 -4.14-2.85 6.83 6.83 0 0 1 -1.66-1.37 26.45 26.45 0 0 1 -3.39-4.79 74.68 74.68 0 0 0 -4.67-7c-.55-.76-1.2-1.56-1.77-2.26-6-7.24-13.61-11.44-23.82-13.11a7 7 0 0 1 .54-1.34 5.26 5.26 0 0 1 .38-.65 6.81 6.81 0 0 1 2.61-2.19 16 16 0 0 1 5-1.31 20 20 0 0 1 11.72 2.28 30.46 30.46 0 0 1 5.35 3.48 2 2 0 0 0 2 .31c6.56-2.46 14.57-3 20.58.21a15.11 15.11 0 0 1 5.32 4.59 2 2 0 1 0 3.15-2.29 19 19 0 0 0 -1.9-2.25h39.65c-.04 3.07-.16 7.81-.34 9.38z"/><path d="m101 136.44a3.84 3.84 0 1 0 2.81 4.65 3.84 3.84 0 0 0 -2.81-4.65z"/><path d="m142 72a2 2 0 0 0 -2 2v10.74a19.53 19.53 0 0 1 -19.5 19.5 2 2 0 0 0 0 4 23.52 23.52 0 0 0 23.5-23.5v-10.74a2 2 0 0 0 -2-2z"/><circle cx="33.32" cy="121.5" r="2.5"/><path d="m30.82 116.14c-3.11-3.75-7.69-7.76-18.08-9.08a10 10 0 0 1 -8.74-10.58 2 2 0 0 0 -1.86-2.13 2 2 0 0 0 -2.14 1.86 14 14 0 0 0 12.24 14.79c9 1.14 12.75 4.36 15.5 7.67a2 2 0 0 0 1.54.72 2 2 0 0 0 1.27-.46 2 2 0 0 0 .27-2.79z"/><path d="m20.69 51.32a13.85 13.85 0 0 0 3.3.4 14 14 0 0 0 12.01-6.72 13.88 13.88 0 0 0 10.29 6.71 15.74 15.74 0 0 0 1.67.1 13.91 13.91 0 0 0 11.9-6.81 14 14 0 0 0 24.28 0 13.91 13.91 0 0 0 11.93 6.82 15.74 15.74 0 0 0 1.67-.1 13.92 13.92 0 0 0 10.26-6.72 14 14 0 0 0 25.6-10.59 1.78 1.78 0 0 0 -.29-.66l-10.16-14.88a2 2 0 0 0 -1.65-.87h-17.5v-1a9 9 0 0 0 -16-5.64 9 9 0 0 0 -14 0 9 9 0 0 0 -12-1.84v-.52a9 9 0 0 0 -18 0v8c0 .34 0 .67.06 1h-21.56a2 2 0 0 0 -1.65.87l-10.16 14.88a1.78 1.78 0 0 0 -.29.66 14 14 0 0 0 10.29 16.91zm51.31-3.32a10 10 0 0 1 -9.79-8h19.59a10 10 0 0 1 -9.8 8zm25.26-.31a9.93 9.93 0 0 1 -10.85-7.69h19.34a9.89 9.89 0 0 1 -8.49 7.69zm25.11-.25a10 10 0 0 1 -12.09-7.35s0-.06 0-.09h19.46a10 10 0 0 1 -7.37 7.44zm-1.93-25.44 9.35 13.69c0 .11 0 .21.05.31h-20l-5.15-14zm-30.44-5a5 5 0 0 1 10 0v2a4.94 4.94 0 0 1 -1 3 5 5 0 0 1 -8 0 4.94 4.94 0 0 1 -1-3zm-2 7.64a7.92 7.92 0 0 0 .88.95 9 9 0 0 0 12.73-.49l4 10.9h-19.72l-.89-9a8.91 8.91 0 0 0 3-2.36zm-12-7.64a5 5 0 0 1 10 0v2a5 5 0 0 1 -9 3 4.94 4.94 0 0 1 -1-3zm-2 7.64a9 9 0 0 0 7 3.36h.1l.78 8h-19.69l.81-8.93a9 9 0 0 0 3.9.93h.1a9 9 0 0 0 7-3.36zm-12-7.64a5 5 0 0 1 10 0v2a5 5 0 0 1 -4.69 5 1.62 1.62 0 0 1 -.31 0 5 5 0 0 1 -3.57-1.49 5.27 5.27 0 0 1 -.43-.51 4.94 4.94 0 0 1 -1-3zm-28.28 23.09a10 10 0 0 1 -19.44-.09h19.46s-.02.06-.02.09zm20.28 5.55a9.88 9.88 0 0 1 -15.74-5.64h19.33a9.86 9.86 0 0 1 -3.59 5.64zm-6-36.64a5 5 0 0 1 10 0v8a4.72 4.72 0 0 1 -.12 1h-9.76a4.72 4.72 0 0 1 -.12-1zm10.52 13a9.25 9.25 0 0 0 .8 1.68l-1.12 12.11v.21h-19.83l5.16-14zm-44.31 13.69 9.35-13.69h15.71l-5.15 14h-20c.06-.1.07-.2.09-.31z"/></g></svg>