<svg xmlns="http://www.w3.org/2000/svg" viewBox="0 0 158 154.25"><path d="m109.12 50h-13.34a38 38 0 0 1 -67.78 27.3v37.82a4.87 4.87 0 0 0 4.88 4.88h76.24a4.87 4.87 0 0 0 4.88-4.88v-60.24a4.87 4.87 0 0 0 -4.88-4.88z" fill="#2a94c9"/><g fill="#ef4b26"><path d="m58 38a2 2 0 0 0 2-2v-4a2 2 0 0 0 -4 0v4a2 2 0 0 0 2 2z"/><path d="m58 78a2 2 0 0 0 2-2v-4a2 2 0 0 0 -4 0v4a2 2 0 0 0 2 2z"/><path d="m36 56h4a2 2 0 0 0 0-4h-4a2 2 0 0 0 0 4z"/><path d="m76 56h4a2 2 0 0 0 0-4h-4a2 2 0 0 0 0 4z"/></g><g fill="#2b3036"><circle cx="134" cy="152" r="2.25"/><circle cx="122" cy="72" r="2.25"/><path d="m128 150h-102a2 2 0 0 0 0 4h102a2 2 0 0 0 0-4z"/><path d="m8 142a2 2 0 0 0 0 4h148a2 2 0 0 0 0-4z"/><path d="m140 130h16a2 2 0 0 0 2-2v-8a2 2 0 0 0 -2-2v-12.08a10.16 10.16 0 0 0 -1.07-4.53l-9.71-19.39a7.15 7.15 0 0 0 -6.42-4h-22.64v-23.12a7.05 7.05 0 0 0 -7-7h-11.64a39.93 39.93 0 0 0 -9.58-20.36l3.19-3.2 1.79 1.79a2.43 2.43 0 0 0 3.44 0l.79-.79a2.43 2.43 0 0 0 0-3.44l-6.49-6.48a2.43 2.43 0 0 0 -3.44 0l-.78.78a2.41 2.41 0 0 0 0 3.44l1.87 1.87-3.17 3.17a40 40 0 0 0 -23.14-10.46v-2.2h4a4 4 0 0 0 4-4v-4a4 4 0 0 0 -4-4h-16a4 4 0 0 0 -4 4v4a4 4 0 0 0 4 4h4v2.21a39.74 39.74 0 0 0 -22.86 10.15l-2.91-2.91 1.86-1.87a2.41 2.41 0 0 0 0-3.44l-.78-.78a2.43 2.43 0 0 0 -3.44 0l-6.49 6.48a2.43 2.43 0 0 0 0 3.44l.79.79a2.43 2.43 0 0 0 3.44 0l1.79-1.79 2.92 2.92a40 40 0 0 0 -2.48 50.58v37.34a7.05 7.05 0 0 0 7 7h7.16v5.88a2 2 0 0 0 2 2h8a12 12 0 0 0 24 0h42a12 12 0 0 0 24 0zm-90-122v-4h16v4zm-28 46a35.78 35.78 0 0 1 9.18-24 28.66 28.66 0 0 1 2.82-2.78 35.94 35.94 0 0 1 48.4.3l2.6 2.74a35.62 35.62 0 0 1 8.44 17.58 34 34 0 0 1 .5 4.32v1.84a36 36 0 0 1 -63.78 22.78 34.86 34.86 0 0 1 -4.32-6.66 35.54 35.54 0 0 1 -3.84-16.12zm8.16 61.12v-32.42a40 40 0 0 0 67.84-28.7c0-.62 0-1.22-.06-1.84h11.18a2.72 2.72 0 0 1 2.72 2.72v60.24a2.72 2.72 0 0 1 -2.72 2.72h-76.24a2.72 2.72 0 0 1 -2.72-2.72zm13.84 10.88v-3.84h8.94a12.11 12.11 0 0 0 -2.24 3.84zm18 12a8 8 0 1 1 8-8 8 8 0 0 1 -8 8zm54.7-12h-43.4a12.11 12.11 0 0 0 -2.24-3.84h38.06a7.05 7.05 0 0 0 7-7v-33.16h22.68a3.16 3.16 0 0 1 2.84 1.75l9.71 19.43a6 6 0 0 1 .65 2.74v12.08h-8a2 2 0 0 0 0 4h10v4h-14.7a12 12 0 0 0 -22.6 0zm11.3 12a8 8 0 1 1 8-8 8 8 0 0 1 -8 8z"/><path d="m129 102.29a7.72 7.72 0 0 0 4.83 1.71h7.58a4.59 4.59 0 0 0 4.1-6.64l-5.29-10.59a5 5 0 0 0 -4.48-2.77h-12a5.47 5.47 0 0 0 -5.47 5.46v.54a7.58 7.58 0 0 0 2.89 6zm-6.68-12.83a1.47 1.47 0 0 1 1.47-1.46h12a1 1 0 0 1 .9.56l5.29 10.59a.57.57 0 0 1 0 .57.56.56 0 0 1 -.5.28h-7.58a3.69 3.69 0 0 1 -2.32-.82l-7.84-6.32a3.63 3.63 0 0 1 -1.42-2.86z"/><path d="m126 106h-4a2 2 0 0 0 0 4h4a2 2 0 0 0 0-4z"/><circle cx="128" cy="130" r="2.25"/><path d="m22 92a2 2 0 0 0 -2-2h-18a2 2 0 0 0 0 4h18a2 2 0 0 0 2-2z"/><path d="m20 106h-12a2 2 0 0 0 0 4h12a2 2 0 0 0 0-4z"/><path d="m58 86a32 32 0 1 0 -32-32 32 32 0 0 0 32 32zm0-60a28 28 0 1 1 -28 28 28 28 0 0 1 28-28z"/><circle cx="62" cy="130" r="2.25"/><path d="m58 60a6 6 0 0 0 5.4-8.57l10-10a2 2 0 0 0 -2.82-2.82l-10 10a6 6 0 1 0 -2.58 11.39z"/><path d="m128 74h10.52a2 2 0 0 0 0-4h-10.52a2 2 0 0 0 0 4z"/><path d="m102.93 64.07a2 2 0 0 0 -2.45 1.41 44.47 44.47 0 0 1 -29.09 30.44 2 2 0 0 0 .61 3.9 2.15 2.15 0 0 0 .61-.09 48.5 48.5 0 0 0 31.73-33.21 2 2 0 0 0 -1.41-2.45z"/><circle cx="65.24" cy="99.82" r="2.25"/></g></svg>