<svg xmlns="http://www.w3.org/2000/svg" viewBox="0 0 140.25 139.44"><path d="m116.25 13.44v48.56a5.8 5.8 0 0 0 -2-.35h-6v-48.21z" fill="#ef4b26"/><path d="m82.81 131.24c.07.07.12.14.19.2h-60.75v-6h55.88c.45.68.94 1.35 1.45 2s1.09 1.35 1.68 2 .95 1.21 1.55 1.8z" fill="#ef4b26"/><path d="m46.25 44.94a.5.5 0 0 1 -.5.5h-15a.5.5 0 0 1 -.5-.5v-15a.5.5 0 0 1 .5-.5h14.25l2.15-2.58a3.82 3.82 0 0 1 .89-.77 4.47 4.47 0 0 0 -2.32-.65h-15a4.51 4.51 0 0 0 -4.5 4.5v15a4.51 4.51 0 0 0 4.5 4.5h15a4.51 4.51 0 0 0 4.5-4.5v-9.28l-4 4.8z" fill="#2a94c9"/><path d="m46.25 74.94a.5.5 0 0 1 -.5.5h-15a.5.5 0 0 1 -.5-.5v-15a.5.5 0 0 1 .5-.5h14.25l2.14-2.56a3.72 3.72 0 0 1 .9-.78 4.42 4.42 0 0 0 -2.33-.66h-15a4.51 4.51 0 0 0 -4.5 4.5v15a4.51 4.51 0 0 0 4.5 4.5h15a4.51 4.51 0 0 0 4.5-4.5v-9.26l-4 4.8z" fill="#2a94c9"/><g fill="#ef4b26"><path d="m45.75 109.44h-15a4.5 4.5 0 0 1 -4.5-4.5v-15a4.51 4.51 0 0 1 4.5-4.5h15a4.51 4.51 0 0 1 4.5 4.5v15a4.5 4.5 0 0 1 -4.5 4.5zm-15-20a.5.5 0 0 0 -.5.5v15a.5.5 0 0 0 .5.5h15a.5.5 0 0 0 .5-.5v-15a.5.5 0 0 0 -.5-.5z"/><path d="m110.25 83.44v4a2 2 0 0 1 -4 0v-4a2 2 0 0 1 1.8-2h.4a2 2 0 0 1 1.8 2z"/><path d="m108.25 129.44a2 2 0 0 1 -2-2v-4a2 2 0 0 1 4 0v4a2 2 0 0 1 -2 2z"/><path d="m92.25 105.44a2 2 0 0 1 -2 2h-4a2 2 0 0 1 -2-1.8 2 2 0 0 1 0-.4 2 2 0 0 1 2-1.8h4a2 2 0 0 1 2 2z"/><path d="m130.25 107.44h-4a2 2 0 0 1 0-4h4a2 2 0 0 1 0 4z"/></g><g fill="#2b3036"><circle cx="128.25" cy="39.72" r="2.25"/><circle cx="2.25" cy="65.72" r="2.25"/><path d="m83.24 131.53c-.6-.59-1.18-1.19-1.73-1.81h-57.26v-2h55.58c-.51-.65-1-1.32-1.45-2s-.87-1.32-1.26-2h-60.87v-114h90v52h4v-46h4v46a5.8 5.8 0 0 1 2 .35 5.49 5.49 0 0 1 2 1.19v-49.54a2 2 0 0 0 -2-2h-6v-4a2 2 0 0 0 -2-2h-94a2 2 0 0 0 -2 2v118a2 2 0 0 0 2 2h6v4a2 2 0 0 0 2 2h63.47c-.78-.63-1.54-1.29-2.27-2z"/><path d="m58.25 33.72h36a2 2 0 0 0 0-4h-36a2 2 0 0 0 0 4z"/><path d="m58.25 45.72h36a2 2 0 0 0 0-4h-36a2 2 0 0 0 0 4z"/><path d="m98.25 61.72a2 2 0 0 0 -2-2h-38a2 2 0 0 0 0 4h38a2 2 0 0 0 2-2z"/><path d="m84.25 73.72a2 2 0 0 0 -2-2h-24a2 2 0 0 0 0 4h24a2 2 0 0 0 2-2z"/><path d="m76 89.72h-17.75a2 2 0 0 0 0 4h16.06a34.49 34.49 0 0 1 1.69-4z"/><path d="m56.25 101.72a2 2 0 0 0 2 2h14.07a31 31 0 0 1 .44-4h-14.51a2 2 0 0 0 -2 2z"/><path d="m12.12 135.49a10.05 10.05 0 0 1 -7.87-9.77v-54a2 2 0 0 0 -4 0v54a14.08 14.08 0 0 0 11 13.68 2 2 0 0 0 .42 0 2 2 0 0 0 .42-3.95z"/><path d="m118.38 4a10.05 10.05 0 0 1 7.87 9.77v20a2 2 0 0 0 4 0v-20a14.08 14.08 0 0 0 -11.03-13.77 2 2 0 0 0 -2.38 1.54 2 2 0 0 0 1.54 2.46z"/><path d="m49.56 57.47a2.07 2.07 0 0 0 -.85.6l-2.46 3-6.13 7.36-2.95-3-1.51-1.5a2 2 0 1 0 -2.82 2.82l6 6a2 2 0 0 0 1.41.59h.09a2 2 0 0 0 1.45-.72l4.46-5.35 4-4.8 1.54-1.85a2 2 0 0 0 -2.23-3.16z"/><path d="m51.53 27.82a2 2 0 0 0 -2-.33 1.88 1.88 0 0 0 -.84.59l-2.46 3-6.11 7.32-2.95-2.95-1.51-1.51a2 2 0 0 0 -2.82 2.83l6 6a2 2 0 0 0 1.41.59h.09a2 2 0 0 0 1.45-.72l4.46-5.35 4-4.8 1.54-1.85a2 2 0 0 0 -.26-2.82z"/><path d="m120.84 90.31-10 10a5.06 5.06 0 0 0 -.58-.25 6 6 0 0 0 -2-.34 5.8 5.8 0 0 0 -2 .35 6 6 0 0 0 0 11.3 5.89 5.89 0 0 0 4 0 6 6 0 0 0 4-5.65 5.86 5.86 0 0 0 -.59-2.58l10-10a2 2 0 1 0 -2.82-2.83z"/><path d="m133.51 86.12 2.15-2.12a2 2 0 0 0 0-2.83l-2.82-2.82a2 2 0 0 0 -1.42-.59 2 2 0 0 0 -1.41.59l-2.16 2.15a31.88 31.88 0 0 0 -9.6-5.11c-.66-.22-1.33-.42-2-.59s-1.32-.32-2-.45-1.32-.23-2-.31v-2.32h2a2 2 0 0 0 2-2v-2a2 2 0 0 0 -2-2h-12a2 2 0 0 0 -2 2v2a2 2 0 0 0 2 2h2v2.28a32 32 0 0 0 -23.7 15.72 29.05 29.05 0 0 0 -2 4 30.29 30.29 0 0 0 -1.77 6 27.68 27.68 0 0 0 -.5 4 31.17 31.17 0 0 0 0 4.63 31.5 31.5 0 0 0 5.49 15.37c.47.69 1 1.35 1.5 2s1.13 1.36 1.75 2a28.2 28.2 0 0 0 2.09 2 27 27 0 0 0 2.52 2 30.3 30.3 0 0 0 3.14 2 31.6 31.6 0 0 0 13.77 4h1.63a32 32 0 0 0 25.26-51.6zm-15.26 43.61c-.65.27-1.32.52-2 .73a25.78 25.78 0 0 1 -21.85-2.74 23.65 23.65 0 0 1 -2.76-2 25.33 25.33 0 0 1 -2.15-2 26 26 0 0 1 -7.23-17.36v-.08c0-.19 0-.37 0-.56 0-.67 0-1.34.08-2a24.88 24.88 0 0 1 .6-3.88 26 26 0 0 1 23.32-20c.66 0 1.33-.08 2-.08h.65c.46 0 .9 0 1.35.07a25.06 25.06 0 0 1 4 .62c.68.16 1.34.35 2 .56s1.35.46 2 .74a26 26 0 0 1 0 48z"/></g></svg>