<svg xmlns="http://www.w3.org/2000/svg" viewBox="0 0 123.39 153.24"><path d="m118.37 111.43c-2.14 1.24-5.28 2.52-8.94 4.88-8.72 5.64-19.22 13-21.1 13.76-3.18 1.24-6.82 2.08-20.82-1.1-13.2-3-23.52-5.56-29-5.34-4.54.18-17.5 1.94-17.5 1.94l-5.78-27.34c-.54.22-1.06.4-1.58.56l7.35 34.84s13-1.76 17.5-1.94c5.5-.22 15.82 2.36 29 5.34 14 3.18 17.64 2.34 20.82 1.1 1.88-.74 12.38-8.12 21.1-13.76 6.08-3.92 10.76-4.86 11.72-7.54.86-2.46-.69-4.42-2.77-5.4z" fill="#2a94c9"/><path d="m60.25 111 17.18 7.78a4.57 4.57 0 0 0 1.9.4 4.76 4.76 0 0 0 3.52-1.56s0 0 0 0a5 5 0 0 0 .74-1.16 4.5 4.5 0 0 0 .4-1.56 4.1 4.1 0 0 0 .68-.64 7 7 0 0 0 1-1.48 7.23 7.23 0 0 0 .82-3.82 7 7 0 0 0 -1.22-3.62 4.09 4.09 0 0 0 .4-.62.84.84 0 0 0 .08-.2l-.82-.38-1.26-.56a5.73 5.73 0 0 1 1.3 1.3 4.55 4.55 0 0 1 -.2 1.14 3.63 3.63 0 0 1 -.22.6 4.72 4.72 0 0 1 -4.28 2.76 4.6 4.6 0 0 1 -1.9-.42l-1.54-.7-12-5.42-.78-.36a4.6 4.6 0 0 0 -1.9-.42 4.67 4.67 0 0 0 -1.9 8.94z" fill="#2a94c9"/><g fill="#ef4b26"><path d="m81.43 43.45a17.83 17.83 0 1 0 -22.72-10.94 17.83 17.83 0 0 0 22.72 10.94zm-13.02-27.45a1.15 1.15 0 0 1 1.5.61l.73 1.69 1.15 2.7 4.5-4.19a.88.88 0 0 1 1.18 0 .87.87 0 0 1 0 1.27l-5 4.64.19.45.2.46 2.94-2.71 1.6-1.52a.84.84 0 0 1 1.36.3.86.86 0 0 1 -.22 1l-4.78 4.44a2 2 0 0 0 -.15.18l1.92 4.5 1.93 4.52a15.52 15.52 0 0 0 3.54-3.68 8.76 8.76 0 0 0 1-5.35 9.84 9.84 0 0 0 -.34-1.47 1.15 1.15 0 0 1 .66-1.38 1.17 1.17 0 0 1 1.57.74 10.72 10.72 0 0 1 .38 4.19 10.21 10.21 0 0 1 -1.1 4.07 11.19 11.19 0 0 1 -2.36 3.27 10.84 10.84 0 0 1 -4.48 2.64l-2.22-5.2-2.22-5.23-.29.28-2.2 2a.86.86 0 0 1 -1.4-.22.86.86 0 0 1 .21-1l2.94-2.73-.4-.93-2.45 2.34a.87.87 0 0 1 -1.4-.28.87.87 0 0 1 .21-1l2.89-2.73-1.33-3.12-.88-2.06a1.15 1.15 0 0 1 .62-1.49z"/><path d="m76.16 4a21.47 21.47 0 0 1 22.5 20.34 2 2 0 0 0 2 1.9h.1a2 2 0 0 0 1.9-2.1 25.49 25.49 0 0 0 -26.66-24.14 2 2 0 1 0 .2 4z"/><path d="m101.89 28.67-.36-.18a2.3 2.3 0 0 0 -3 1l-.18.36a2.24 2.24 0 0 0 1 3l.36.18a2.11 2.11 0 0 0 1 .24 2.25 2.25 0 0 0 2-1.24l.18-.36a2.28 2.28 0 0 0 -1-3z"/><path d="m21.53 55.11a17.08 17.08 0 1 0 20.8-12.26 17.09 17.09 0 0 0 -20.8 12.26zm14.15-7.27a1.16 1.16 0 0 1 1.16 1.16v4.85l5.84-2.12a.89.89 0 0 1 1.12.44.87.87 0 0 1 -.49 1.19l-6.47 2.34v1l3.81-1.35 2-.77a.85.85 0 0 1 1.15.83.86.86 0 0 1 -.58.79l-6.21 2.24-.21.11v9.92a15.5 15.5 0 0 0 4.72-2 8.78 8.78 0 0 0 3-4.6 9.85 9.85 0 0 0 .27-1.5 1.15 1.15 0 0 1 1.16-1 1.17 1.17 0 0 1 1.17 1.31 11.07 11.07 0 0 1 -1.31 4.05 10.33 10.33 0 0 1 -2.64 3.35 11.27 11.27 0 0 1 -3.48 2.11 11.07 11.07 0 0 1 -5.22.67v-11.46l-.39.14-2.85 1a.86.86 0 0 1 -1.16-.82.89.89 0 0 1 .57-.82l3.83-1.37v-1l-3.22 1.21a.87.87 0 0 1 -1.18-.82.87.87 0 0 1 .59-.84l3.81-1.35v-5.73a1.15 1.15 0 0 1 1.21-1.16z"/><path d="m14.94 65a2.2 2.2 0 0 0 .44 0 2 2 0 0 0 1.52-2.38 20.49 20.49 0 0 1 15.58-24.48 2 2 0 1 0 -.86-3.9 24.47 24.47 0 0 0 -18.62 29.13 2 2 0 0 0 1.94 1.63z"/><path d="m37.71 37.41.52.16a2 2 0 0 0 .6.1 2.14 2.14 0 0 0 2-1.5l.14-.52a2 2 0 0 0 -.14-1.6 2.16 2.16 0 0 0 -1.24-1l-.52-.16a2.15 2.15 0 0 0 -2.62 1.4l-.16.52a2.1 2.1 0 0 0 1.42 2.6z"/><path d="m95 58.59a17.07 17.07 0 1 0 13.14 20.26 17.06 17.06 0 0 0 -13.14-20.26zm2.89 7.06a1.16 1.16 0 0 1 0 1.64l-1.3 1.31-2.12 2.1 5.62 2.65a.89.89 0 0 1 .47 1.1.87.87 0 0 1 -1.19.49l-6.21-2.94-.35.35-.36.35 3.64 1.76 2 .9a.86.86 0 0 1 .22 1.4.86.86 0 0 1 -1 .15l-6-2.84-.19-.07-3.5 3.48-3.53 3.52a15.37 15.37 0 0 0 4.74 2 8.83 8.83 0 0 0 5.39-1.1 11 11 0 0 0 1.25-.9 1.16 1.16 0 0 1 1.54.1 1.17 1.17 0 0 1 -.11 1.75 11.06 11.06 0 0 1 -3.79 1.93 10.43 10.43 0 0 1 -4.23.48 11.21 11.21 0 0 1 -3.95-1 11 11 0 0 1 -4.15-3.26l4-4 4.08-4-.37-.16-2.73-1.31a.86.86 0 0 1 -.24-1.4.87.87 0 0 1 1-.17l3.66 1.74.73-.72-3.08-1.48a.86.86 0 0 1 -.25-1.41.88.88 0 0 1 1-.17l3.63 1.75 2.43-2.41 1.62-1.6a1.14 1.14 0 0 1 1.66-.01z"/><path d="m96 52.26a2 2 0 0 0 1.54 2.38 20.48 20.48 0 0 1 15.76 24.27 2 2 0 0 0 3.91.83 24.49 24.49 0 0 0 -18.82-29 2 2 0 0 0 -2.39 1.52z"/><path d="m114.77 83.77a2.19 2.19 0 0 0 -3 .18l-.34.4a2.13 2.13 0 0 0 .18 3l.4.36a2.2 2.2 0 0 0 1.4.52 2 2 0 0 0 1.56-.72l.36-.4a2.09 2.09 0 0 0 -.18-3z"/></g><g fill="#2b3036"><path d="m122.83 113a7.79 7.79 0 0 0 -4.53-3.78 22.69 22.69 0 0 0 -7.44-1.24c-6.07 0-11.86 2.3-17 4.33-2.47 1-4.87 1.93-7.13 2.57a8.31 8.31 0 0 0 .73-1.18 9.36 9.36 0 0 0 -3.94-12.63c-2.73-1.44-5.91-3.17-9.19-5-13.05-7.07-21.22-11.4-24.33-11.56a46.46 46.46 0 0 0 -13 1.18c-2.09.43-5.4 2.2-9.59 4.46a117.8 117.8 0 0 1 -12.13 5.94l-.33-1.6a2 2 0 0 0 -2.37-1.56l-11 2.28a2 2 0 1 0 .82 3.92l9-1.87.25 1.19a1.77 1.77 0 0 0 0 .76l7.35 34.79v.13l2.09 10.09-19.5 4.1a2 2 0 0 0 .41 4 2 2 0 0 0 .41-.05l21.53-4.46a2 2 0 0 0 1.56-2.37l-2.09-10.07c3.86-.5 11.87-1.5 15.15-1.63 4.52-.19 12.87 1.72 23.53 4.16l5 1.13c6.8 1.54 11.62 2.25 15.18 2.25a16.9 16.9 0 0 0 6.79-1.28c1.29-.51 4.72-2.79 11.17-7.11 3.3-2.21 6.93-4.64 10.29-6.82a61.91 61.91 0 0 1 6.11-3.39c3.1-1.55 5.54-2.78 6.4-5.17a5.75 5.75 0 0 0 -.2-4.51zm-3.57 3.13c-.32.89-2.22 1.84-4.42 2.94a65.57 65.57 0 0 0 -6.49 3.61c-3.38 2.19-7 4.63-10.35 6.86-4.43 3-9.45 6.34-10.4 6.71a13.07 13.07 0 0 1 -5.35 1c-3.21 0-7.89-.7-14.29-2.15l-4.96-1.1c-10.44-2.39-18.68-4.28-23.8-4.28h-.78c-3.56.15-12 1.21-15.81 1.7l-6.51-31.36a115.75 115.75 0 0 0 13.2-6.39c3.59-1.93 7-3.75 8.5-4.07a43 43 0 0 1 12-1.1c2.43.13 14.61 6.76 22.67 11.15 3.3 1.79 6.49 3.53 9.25 5a5.36 5.36 0 0 1 -2.52 10.1 5.31 5.31 0 0 1 -2.47-.61h-.07-.09a157.68 157.68 0 0 0 -16-7 2 2 0 0 0 -1.46 3.72 153.09 153.09 0 0 1 15.67 6.88l.71.37a12.85 12.85 0 0 0 5.6 1.62h.16.3.43.39.58c.38 0 .77-.06 1.15-.1a12.78 12.78 0 0 0 1.36-.21 56 56 0 0 0 9.95-3.26c5-2 10.17-4 15.48-4a18.51 18.51 0 0 1 6.13 1 3.87 3.87 0 0 1 2.23 1.73 1.74 1.74 0 0 1 .01 1.26z"/><path d="m121.15 128.73a2.25 2.25 0 0 0 -.78 4.44 2.56 2.56 0 0 0 .39 0 2.24 2.24 0 0 0 1.84-3.54 2.19 2.19 0 0 0 -1.45-.9z"/><path d="m13.64 139.24a3.83 3.83 0 1 0 -3.83 3.84 3.83 3.83 0 0 0 3.83-3.84z"/><path d="m114.86 132.78c-3.32 2.15-6.91 4.56-10.17 6.74-8.41 5.64-10.76 7.16-12.71 7.92a25 25 0 0 1 -9.73 1.8c-4.17 0-9.55-.77-16.94-2.45a2 2 0 0 0 -.88 3.91c7.68 1.73 13.35 2.54 17.82 2.54a28.73 28.73 0 0 0 11.19-2.08c2.34-.91 4.49-2.29 13.47-8.32 3.25-2.17 6.82-4.56 10.13-6.7a2 2 0 0 0 -2.18-3.36z"/></g></svg>