<svg id="Layer_1" data-name="Layer 1" xmlns="http://www.w3.org/2000/svg" viewBox="0 0 456.45 186.44"><defs><style>.cls-1{fill:#00bed6;}.cls-2{fill:#231f20;}</style></defs><title>iyzico a payu company</title><path class="cls-1" d="M944.79,546.05H900.36l51.8-51.8a10.42,10.42,0,0,0-7.37-17.79H880.41a10.42,10.42,0,1,0,0,20.84h39.22l-51.8,51.8a10.42,10.42,0,0,0,7.37,17.79h69.59a10.42,10.42,0,1,0,0-20.84Z" transform="translate(-731.74 -444.28)"/><path class="cls-1" d="M743.07,566.89a11.35,11.35,0,0,1-11.33-11.33V487.79a11.34,11.34,0,0,1,22.67,0v67.77A11.35,11.35,0,0,1,743.07,566.89Z" transform="translate(-731.74 -444.28)"/><path class="cls-1" d="M981.27,566.89a11.34,11.34,0,0,1-11.33-11.33V487.79a11.33,11.33,0,0,1,22.66,0v67.77A11.34,11.34,0,0,1,981.27,566.89Z" transform="translate(-731.74 -444.28)"/><path class="cls-1" d="M1143,476.46a45.22,45.22,0,1,0,45.22,45.21A45.27,45.27,0,0,0,1143,476.46Zm0,69.59a24.38,24.38,0,1,1,24.37-24.38A24.41,24.41,0,0,1,1143,546.05Z" transform="translate(-731.74 -444.28)"/><path class="cls-1" d="M1069.77,538.91a24.37,24.37,0,1,1,0-34.48,10.42,10.42,0,1,0,14.73-14.74,45.22,45.22,0,1,0,0,64,10.42,10.42,0,0,0-14.74-14.74Z" transform="translate(-731.74 -444.28)"/><path class="cls-1" d="M743.07,466.94a11.33,11.33,0,1,1,11.34-11.33A11.35,11.35,0,0,1,743.07,466.94Z" transform="translate(-731.74 -444.28)"/><path class="cls-1" d="M981.27,466.94a11.33,11.33,0,1,1,11.33-11.33A11.34,11.34,0,0,1,981.27,466.94Z" transform="translate(-731.74 -444.28)"/><path class="cls-1" d="M797.4,601.7a11.34,11.34,0,0,1-10.13-16.41l14.41-28.82-31.8-63.62a11.33,11.33,0,0,1,20.27-10.13l24.2,48.41,24.22-48.4a11.34,11.34,0,0,1,15.2-5.07h0a11.34,11.34,0,0,1,5.07,15.2l-51.3,102.57A11.27,11.27,0,0,1,797.4,601.7Z" transform="translate(-731.74 -444.28)"/><path class="cls-2" d="M866.53,617.64v-.08c0-4.7,3.67-7,9-7a18.05,18.05,0,0,1,5.85.91v-.54c0-3.09-1.89-4.74-5.4-4.74a13,13,0,0,0-4.82.86,2.6,2.6,0,0,1-.79.13,2.08,2.08,0,0,1-2.1-2.07,2.19,2.19,0,0,1,1.36-2,18.75,18.75,0,0,1,7-1.27c3.26,0,5.69.86,7.22,2.43s2.35,3.88,2.35,6.72v10.73a2.37,2.37,0,0,1-2.43,2.39,2.26,2.26,0,0,1-2.44-2.11v-.82a8.85,8.85,0,0,1-7.09,3.18C870.16,624.37,866.53,622,866.53,617.64Zm14.93-1.56v-1.49a14,14,0,0,0-5-.87c-3.22,0-5.12,1.37-5.12,3.63v.09c0,2.1,1.86,3.3,4.25,3.3C878.94,620.74,881.46,618.84,881.46,616.08Z" transform="translate(-731.74 -444.28)"/><path class="cls-2" d="M899.36,597.6a2.51,2.51,0,0,1,2.55-2.56h8.83c6.76,0,11,3.84,11,9.65v.08c0,6.48-5.2,9.86-11.55,9.86h-5.73v7a2.54,2.54,0,0,1-5.07,0Zm11,12.45c3.83,0,6.23-2.14,6.23-5.15v-.08c0-3.39-2.44-5.16-6.23-5.16h-5.9v10.39Z" transform="translate(-731.74 -444.28)"/><path class="cls-2" d="M922.83,617.64v-.08c0-4.7,3.67-7,9-7a18.05,18.05,0,0,1,5.85.91v-.54c0-3.09-1.89-4.74-5.4-4.74a13,13,0,0,0-4.82.86,2.6,2.6,0,0,1-.79.13,2.08,2.08,0,0,1-2.1-2.07,2.19,2.19,0,0,1,1.36-2,18.75,18.75,0,0,1,7-1.27c3.26,0,5.69.86,7.22,2.43s2.35,3.88,2.35,6.72v10.73a2.37,2.37,0,0,1-2.43,2.39,2.26,2.26,0,0,1-2.44-2.11v-.82a8.85,8.85,0,0,1-7.09,3.18C926.46,624.37,922.83,622,922.83,617.64Zm14.93-1.56v-1.49a14,14,0,0,0-5-.87c-3.22,0-5.12,1.37-5.12,3.63v.09c0,2.1,1.86,3.3,4.25,3.3C935.24,620.74,937.76,618.84,937.76,616.08Z" transform="translate(-731.74 -444.28)"/><path class="cls-2" d="M946.79,630a2.14,2.14,0,0,1-1.57-2.07,2,2,0,0,1,2-2.06,2.37,2.37,0,0,1,.91.17,5.8,5.8,0,0,0,1.73.29c1.49,0,2.27-.62,3.1-2.31l.16-.46-8.08-18.06a3.28,3.28,0,0,1-.29-1.2,2.39,2.39,0,0,1,2.47-2.43,2.51,2.51,0,0,1,2.44,1.89l5.85,14.48L961,603.78a2.55,2.55,0,0,1,2.39-1.89,2.36,2.36,0,0,1,2.39,2.35,4.51,4.51,0,0,1-.2,1.19l-8,19.1c-1.86,4.45-3.84,6.1-7.35,6.1A8.85,8.85,0,0,1,946.79,630Z" transform="translate(-731.74 -444.28)"/><path class="cls-2" d="M969,611.66V597.35a2.54,2.54,0,0,1,5.07,0v14.11c0,5.36,2.77,8.2,7.3,8.2s7.26-2.68,7.26-8V597.35a2.54,2.54,0,0,1,5.08,0v14.06c0,8.62-4.87,13-12.42,13S969,620,969,611.66Z" transform="translate(-731.74 -444.28)"/><path class="cls-2" d="M1008,613.15v-.09a11.24,11.24,0,0,1,11.34-11.38,11,11,0,0,1,7.63,2.72,2.38,2.38,0,0,1,.78,1.74,2.27,2.27,0,0,1-2.31,2.26,2.51,2.51,0,0,1-1.48-.49,6.92,6.92,0,0,0-4.66-1.86c-3.63,0-6.31,3.14-6.31,6.93v.08c0,3.88,2.68,7,6.51,7a7.29,7.29,0,0,0,4.87-1.93,2.1,2.1,0,0,1,3.51,1.65,1.92,1.92,0,0,1-.71,1.56,10.61,10.61,0,0,1-7.91,3.1A11.12,11.12,0,0,1,1008,613.15Z" transform="translate(-731.74 -444.28)"/><path class="cls-2" d="M1029.24,613.15v-.09a11.61,11.61,0,0,1,23.22-.08v.08a11.39,11.39,0,0,1-11.67,11.35A11.27,11.27,0,0,1,1029.24,613.15Zm18.23,0v-.09a6.73,6.73,0,0,0-6.68-7c-4,0-6.56,3.14-6.56,6.93v.08a6.71,6.71,0,0,0,6.64,7C1044.91,620,1047.47,616.9,1047.47,613.15Z" transform="translate(-731.74 -444.28)"/><path class="cls-2" d="M1055.88,604.4a2.47,2.47,0,0,1,2.48-2.51,2.49,2.49,0,0,1,2.51,2.51v1c1.41-1.93,3.3-3.75,6.64-3.75a6.91,6.91,0,0,1,6.52,3.84,8.76,8.76,0,0,1,7.34-3.84c4.75,0,7.63,3,7.63,8.33v11.63a2.43,2.43,0,0,1-2.47,2.48,2.47,2.47,0,0,1-2.52-2.48v-10.1c0-3.47-1.61-5.32-4.41-5.32s-4.66,1.9-4.66,5.4v10a2.5,2.5,0,0,1-5,0V611.5c0-3.38-1.65-5.28-4.42-5.28s-4.66,2.06-4.66,5.4v10a2.5,2.5,0,0,1-5,0Z" transform="translate(-731.74 -444.28)"/><path class="cls-2" d="M1093.42,604.4a2.46,2.46,0,0,1,2.47-2.51,2.5,2.5,0,0,1,2.52,2.51v1.36a8.72,8.72,0,0,1,7.42-4.08c5.12,0,10.11,4,10.11,11.3v.08c0,7.22-5,11.31-10.11,11.31a8.88,8.88,0,0,1-7.42-3.84v7.71a2.5,2.5,0,0,1-5,0Zm17.44,8.66V613c0-4.2-2.84-7-6.22-7s-6.36,2.81-6.36,7v.08c0,4.17,3,7,6.36,7S1110.86,617.35,1110.86,613.06Z" transform="translate(-731.74 -444.28)"/><path class="cls-2" d="M1118,617.64v-.08c0-4.7,3.67-7,9-7a18.12,18.12,0,0,1,5.86.91v-.54c0-3.09-1.9-4.74-5.41-4.74a13.06,13.06,0,0,0-4.82.86,2.6,2.6,0,0,1-.79.13,2.08,2.08,0,0,1-2.1-2.07,2.19,2.19,0,0,1,1.36-2,18.75,18.75,0,0,1,7-1.27c3.26,0,5.7.86,7.22,2.43s2.35,3.88,2.35,6.72v10.73a2.37,2.37,0,0,1-2.43,2.39,2.26,2.26,0,0,1-2.43-2.11v-.82a8.89,8.89,0,0,1-7.1,3.18C1121.63,624.37,1118,622,1118,617.64Zm14.93-1.56v-1.49a14,14,0,0,0-5-.87c-3.22,0-5.11,1.37-5.11,3.63v.09c0,2.1,1.85,3.3,4.24,3.3C1130.41,620.74,1132.93,618.84,1132.93,616.08Z" transform="translate(-731.74 -444.28)"/><path class="cls-2" d="M1142,604.4a2.47,2.47,0,0,1,2.48-2.51,2.49,2.49,0,0,1,2.51,2.51v1.08a7.9,7.9,0,0,1,6.81-3.8c4.91,0,7.75,3.3,7.75,8.33v11.63a2.43,2.43,0,0,1-2.47,2.48,2.47,2.47,0,0,1-2.52-2.48v-10.1c0-3.38-1.69-5.32-4.66-5.32s-4.91,2-4.91,5.4v10a2.5,2.5,0,0,1-5,0Z" transform="translate(-731.74 -444.28)"/><path class="cls-2" d="M1166.09,630a2.14,2.14,0,0,1-1.57-2.07,2,2,0,0,1,2-2.06,2.37,2.37,0,0,1,.91.17,5.8,5.8,0,0,0,1.73.29c1.49,0,2.27-.62,3.1-2.31l.16-.46-8.08-18.06a3.28,3.28,0,0,1-.29-1.2,2.39,2.39,0,0,1,2.47-2.43,2.51,2.51,0,0,1,2.44,1.89l5.85,14.48,5.45-14.48a2.55,2.55,0,0,1,2.39-1.89,2.36,2.36,0,0,1,2.39,2.35,4.51,4.51,0,0,1-.2,1.19l-8,19.1c-1.86,4.45-3.84,6.1-7.34,6.1A8.86,8.86,0,0,1,1166.09,630Z" transform="translate(-731.74 -444.28)"/></svg>